<svg height="512pt" viewBox="0 0 512.00013 512" width="512pt" xmlns="http://www.w3.org/2000/svg"><path d="m420 114.167969v328.179687c0 6.613282-3.074219 12.851563-8.320312 16.875-43.136719 33.097656-97.109376 52.777344-155.679688 52.777344-141.296875 0-255.855469-114.472656-256-255.734375-.140625-139.5 112.433594-254.0625 251.917969-256.234375 75.144531-1.171875 143.007812 30.050781 190.558593 80.601562 6.902344 7.339844 1.765626 19.367188-8.308593 19.367188-7.824219 0-14.167969 6.34375-14.167969 14.167969zm0 0" fill="#2740af"/><path d="m149.070312 82.929688c1.875-1.875 4.417969-2.929688 7.070313-2.929688h285.75c43.453125 45.878906 70.109375 107.824219 70.109375 176 0 34.394531-6.785156 67.203125-19.085938 97.160156-19.640624 47.828125-66.480468 78.839844-118.179687 78.839844h-304.625c-11.210937-11.835938-21.304687-8.191406-30.109375-22v-213.859375c0-2.652344 1.054688-5.195313 2.929688-7.070313zm0 0" fill="#98e5fb"/><path d="m461.90625 404c-7.011719 9.875-14.707031 19.230469-23.015625 28h-388.890625c-5.523438 0-10-4.476562-10-10v-28c0 5.523438 4.476562 10 10 10zm0 0" fill="#62dafa"/><path d="m480 255h-30v-95c0-5.523438-4.476562-10-10-10h-320c-5.523438 0-10 4.476562-10 10v95h-30c-5.523438 0-10 4.476562-10 10s4.476562 10 10 10h30v95c0 5.523438 4.476562 10 10 10h320c5.523438 0 10-4.476562 10-10v-95h30c5.523438 0 10-4.476562 10-10s-4.476562-10-10-10zm-157.632812 105c-11.5625-1.527344-22.476563-5.128906-32.367188-10.410156v-74.589844h140v2.628906c-5.65625 42.761719-39.609375 76.714844-82.367188 82.371094zm.003906-190h25.257812c42.761719 5.65625 76.714844 39.609375 82.371094 82.371094v2.628906h-140v-74.589844c9.890625-5.28125 20.808594-8.882812 32.371094-10.410156zm-52.371094 85h-30.3125c2.476562-23.757812 13.667969-44.960938 30.3125-60.351562zm0 20v60.351562c-16.644531-15.390624-27.835938-36.59375-30.3125-60.351562zm160-105v30.265625c-8.113281-11.871094-18.394531-22.152344-30.265625-30.265625zm-300 0h140v.1875c-27.585938 18.96875-46.515625 49.652344-49.558594 84.8125h-90.441406zm0 105h90.441406c3.042969 35.160156 21.972656 65.84375 49.558594 84.8125v.1875h-140zm269.734375 85c11.871094-8.113281 22.152344-18.394531 30.265625-30.265625v30.265625zm0 0" fill="#458fa4"/><path d="m150 82.121094v102.878906c0 2.761719-2.238281 5-5 5h-102.878906c.25-.324219.515625-.636719.808594-.929688l106.140624-106.140624c.292969-.292969.605469-.558594.929688-.808594zm0 0" fill="#c7eefd"/><path d="m330 348v112h-110l-83.175781-51.753906c-3.144531-1.957032-3.144531-6.535156 0-8.492188l83.175781-51.753906zm0 0" fill="#fde5bd"/><path d="m220 348h110v74h-110l-59.464844-37zm0 0" fill="#f5f0eb"/><path d="m494.953125 348c-17.246094 44.765625-46.703125 83.457031-84.296875 112h-190.65625v-112zm0 0" fill="#fda800"/><path d="m467.652344 400c-5.207032 7.636719-10.8125 14.984375-16.792969 22h-230.859375v-74h274.953125c-2.894531 7.515625-6.144531 14.847656-9.710937 22h-220.242188c-8.285156 0-15 6.714844-15 15s6.714844 15 15 15zm0 0" fill="#fdbf43"/><path d="m160 422.667969-23.175781-14.421875c-3.144531-1.957032-3.144531-6.535156 0-8.488282l23.175781-14.425781zm0 0" fill="#174550"/></svg>