<svg id="Capa_1" enable-background="new 0 0 512 512" height="512" viewBox="0 0 512 512" width="512" xmlns="http://www.w3.org/2000/svg"><g><path d="m512 256c0 68.18-26.66 130.13-70.11 176.01-46.65 49.26-112.69 79.99-185.89 79.99-101.17 0-188.64-58.7-230.2-143.89-16.53-33.86-25.8-71.9-25.8-112.11 0-141.38 114.62-256 256-256 28.53 0 55.96 4.67 81.59 13.28 40.13 13.48 75.83 36.65 104.3 66.71 43.45 45.88 70.11 107.83 70.11 176.01z" fill="#6ec17d"/><g><path d="m441.89 54.02v377.99c-46.65 49.26-112.69 79.99-185.89 79.99-101.17 0-188.64-58.7-230.2-143.89v-159.96c0-31.03 163.84-194.87 194.87-194.87h180.49c22.49 0 40.73 18.23 40.73 40.74z" fill="#f9f6f6"/><path d="m25.803 208.153v17.23c0-36.275 29.416-65.692 65.692-65.692h39.982c22.491 0 40.732-18.241 40.732-40.732v-39.983c0-36.275 29.416-65.692 65.692-65.692h-17.23c-31.025 0-60.789 12.327-82.726 34.264l-77.878 77.878c-21.936 21.938-34.264 51.702-34.264 82.727z" fill="#e2dfe2"/></g><path d="m286.685 246.172c-.004-.002-.007-.006-.011-.008l-99.697-49.938c-1.973-.988-4.297-.988-6.27 0l-99.697 49.938c-.042.021-.076.051-.115.075-.143.075-.289.142-.428.228-2.065 1.275-3.322 3.529-3.322 5.956v124.328c0 2.649 1.496 5.072 3.865 6.259l99.697 49.938c.989.496 2.063.741 3.134.741 1.063 0 2.117-.256 3.09-.735.013-.003.031.001.042-.005l99.7-49.94c2.369-1.187 3.865-3.609 3.865-6.259v-124.33c.002-2.734-1.568-5.095-3.853-6.248zm-102.842-35.858 84.067 42.108-84.067 42.109-84.067-42.109zm-7 205.04-85.697-42.925v-108.67l85.697 42.925zm14-.001v-108.669l85.697-42.926v108.669z" fill="#a39e98"/><g><path d="m398.467 66.629h73.824v37.91h-73.824z" fill="#ffbb16" transform="matrix(.707 .707 -.707 .707 188.037 -282.793)"/><path d="m489.328 50.632-18.996-18.996c-9.169-9.169-24.036-9.169-33.205 0l-10.204 10.204 52.202 52.202 10.204-10.204c9.168-9.17 9.168-24.037-.001-33.206z" fill="#f93d6e"/><path d="m489.146 50.454c-9.171-9.171-24.035-9.171-33.206 0l-10.204 10.204-18.816-18.816 10.204-10.204c9.171-9.171 24.035-9.171 33.206 0z" fill="#e41753"/><path d="m406.573 47.059h18.472v37.91h-18.472z" fill="#ff931f" transform="matrix(.707 .707 -.707 .707 168.467 -274.687)"/><path d="m324.222 251.513-30.855-13.396-14.515-31.975 128.432-128.431 45.37 45.37z" fill="#ff78a2"/><path d="m296.836 224.127-20.442-7.702-6.943-19.684 128.432-128.431 27.385 27.385z" fill="#e41753"/><path d="m310.133 237.424-21.351-3.892-5.242-22.702 128.431-128.432 26.594 26.594z" fill="#f93d6e"/><path d="m455.308 117.269-51.614-51.614c-3.539-3.539-9.276-3.539-12.815 0l-2.704 2.704c-3.539 3.539-3.539 9.276 0 12.815l51.614 51.614c3.539 3.539 9.276 3.539 12.815 0l2.704-2.704c3.538-3.538 3.538-9.276 0-12.815z" fill="#ffbb16"/><path d="m410.753 103.75-22.571-22.57c-3.543-3.543-3.543-9.284-.007-12.82l2.708-2.708c3.536-3.536 9.277-3.536 12.82.007l22.571 22.571c-3.536-3.536-9.277-3.535-12.813 0l-2.708 2.708c-3.536 3.535-3.536 9.277 0 12.812z" fill="#ff931f"/><path d="m485.406 87.171-51.614-51.614c-3.539-3.539-9.276-3.539-12.815 0l-2.704 2.704c-3.539 3.539-3.539 9.276 0 12.815l51.614 51.614c3.539 3.539 9.276 3.539 12.815 0l2.704-2.704c3.539-3.538 3.539-9.276 0-12.815z" fill="#ffbb16"/><path d="m440.851 73.652-22.571-22.571c-3.543-3.543-3.543-9.284-.007-12.82l2.708-2.708c3.536-3.536 9.277-3.536 12.82.007l22.571 22.571c-3.536-3.536-9.277-3.535-12.813 0l-2.708 2.708c-3.536 3.536-3.536 9.278 0 12.813z" fill="#ff931f"/><path d="m324.222 251.511-27.315 8.337-35.794-35.794 8.337-27.315z" fill="#e2dfe2"/><path d="m261.113 224.054 8.337-27.315 18.455 18.455-14.736 20.916z" fill="#dad0cb"/><path d="m296.907 259.848-51.534 15.74 15.74-51.534c8.181 2.482 15.889 6.965 22.359 13.435s10.953 14.178 13.435 22.359z" fill="#2f373b"/><path d="m245.373 275.588 15.74-51.534c5.374 1.626 10.536 4.115 15.28 7.474l-3.224 4.582z" fill="#181e21"/></g><g fill="#a39e98"><path d="m297.822 419.748h91.587c5.477 0 9.917-4.44 9.917-9.917 0-5.477-4.44-9.917-9.917-9.917h-91.587c-5.477 0-9.917 4.44-9.917 9.917 0 5.477 4.44 9.917 9.917 9.917z"/><path d="m339.361 452.585h50.048c5.477 0 9.917-4.44 9.917-9.917 0-5.477-4.44-9.917-9.917-9.917h-50.048c-5.477 0-9.917 4.44-9.917 9.917 0 5.477 4.44 9.917 9.917 9.917z"/></g></g></svg>