<?xml version="1.0" encoding="iso-8859-1"?>
<!-- Generator: Adobe Illustrator 19.0.0, SVG Export Plug-In . SVG Version: 6.00 Build 0)  -->
<svg version="1.1" id="Capa_1" xmlns="http://www.w3.org/2000/svg" xmlns:xlink="http://www.w3.org/1999/xlink" x="0px" y="0px"
	 viewBox="0 0 512 512" style="enable-background:new 0 0 512 512;" xml:space="preserve">
<circle style="fill:#F7B12F;" cx="256" cy="256" r="256"/>
<path style="fill:#F9F9F9;" d="M396.02,35.797v434.552c-40.239,26.342-88.336,41.65-140.016,41.65
	c-79.099,0-149.828-35.882-196.786-92.254V35.797H396.02z"/>
<polygon style="fill:#51B0E0;" points="396.02,79.074 396.02,115.133 59.213,115.133 59.213,35.797 396.02,35.797 396.02,61.171 "/>
<g>
	<path style="fill:#FFCF4B;" d="M108.306,62.214c0,4.492-4.546,7.646-8.705,5.948c-8.43-3.444-14.386-11.733-14.386-21.387V23.658
		c0-12.504,9.704-23.167,22.199-23.641c13.136-0.497,23.982,10.046,23.982,23.073v12.707H118.37V23.447
		c0-5.355-4.031-10.039-9.375-10.398c-5.861-0.393-10.755,4.263-10.755,10.043v23.683c0,4.163,2.54,7.743,6.151,9.273
		c2.319,0.982,3.914,3.145,3.914,5.663V62.214z"/>
	<path style="fill:#FFCF4B;" d="M169.013,62.214c0,4.492-4.546,7.646-8.705,5.948c-8.43-3.444-14.386-11.733-14.386-21.387V23.66
		c0-12.504,9.704-23.167,22.199-23.641c13.136-0.497,23.982,10.046,23.982,23.073v12.707h-13.026V23.449
		c0-5.355-4.031-10.039-9.375-10.398c-5.861-0.393-10.755,4.263-10.755,10.043v23.683c0,4.163,2.54,7.743,6.151,9.273
		c2.319,0.982,3.914,3.145,3.914,5.663L169.013,62.214L169.013,62.214z"/>
	<path style="fill:#FFCF4B;" d="M229.72,62.214c0,4.492-4.546,7.646-8.705,5.948c-8.43-3.444-14.386-11.733-14.386-21.387V23.658
		c0-12.504,9.704-23.167,22.199-23.641C241.964-0.48,252.81,10.063,252.81,23.09v12.707h-13.026V23.447
		c0-5.355-4.031-10.039-9.375-10.398c-5.861-0.393-10.755,4.263-10.755,10.043v23.683c0,4.163,2.54,7.743,6.151,9.273
		c2.319,0.982,3.914,3.145,3.914,5.663L229.72,62.214L229.72,62.214z"/>
	<path style="fill:#FFCF4B;" d="M290.427,62.214c0,4.492-4.546,7.646-8.705,5.948c-8.43-3.444-14.386-11.733-14.386-21.387V23.658
		c0-12.504,9.704-23.167,22.199-23.641c13.136-0.497,23.982,10.046,23.982,23.073v12.707h-13.026V23.447
		c0-5.355-4.031-10.039-9.375-10.398c-5.861-0.393-10.755,4.263-10.755,10.043v23.683c0,4.163,2.54,7.743,6.151,9.273
		c2.319,0.982,3.914,3.145,3.914,5.663L290.427,62.214L290.427,62.214z"/>
	<path style="fill:#FFCF4B;" d="M351.135,62.214c0,4.492-4.546,7.646-8.705,5.948c-8.43-3.444-14.386-11.733-14.386-21.387V23.658
		c0-12.504,9.704-23.167,22.199-23.641c13.136-0.497,23.982,10.046,23.982,23.073v12.707h-13.026V23.447
		c0-5.355-4.031-10.039-9.375-10.398c-5.861-0.393-10.755,4.263-10.755,10.043v23.683c0,4.163,2.54,7.743,6.151,9.273
		c2.319,0.982,3.914,3.145,3.914,5.663L351.135,62.214L351.135,62.214z"/>
</g>
<polyline style="fill:#E8E8E8;" points="396.018,122.559 59.211,122.559 59.211,103.931 396.018,103.931 "/>
<path style="fill:#535B70;" d="M196.796,475.838c-9.648,0-19.111-4.678-24.766-13.16c-4.516-6.774-6.036-14.884-4.281-22.833
	c1.755-7.95,6.549-14.663,13.497-18.906l68.963-42.103c4.443-2.713,7.458-7.016,8.491-12.118c1.033-5.102-0.071-10.24-3.11-14.467
	c-5.297-7.369-15.051-9.808-23.193-5.8l-37.299,18.363c-14.68,7.224-32.655,2.452-41.816-11.103
	c-5.099-7.546-6.848-16.964-4.799-25.837c2.05-8.873,7.751-16.57,15.643-21.116l171.57-98.84c4.227-2.435,7.222-6.378,8.438-11.102
	c1.214-4.724,0.491-9.624-2.038-13.796c-4.797-7.918-14.724-10.895-23.09-6.921l-122.737,58.3c-2.867,1.361-6.294,0.142-7.656-2.725
	c-1.363-2.867-0.142-6.296,2.725-7.657l122.737-58.3c13.705-6.513,29.982-1.636,37.851,11.347c4.144,6.839,5.33,14.87,3.338,22.615
	c-1.992,7.745-6.904,14.207-13.832,18.199l-171.57,98.84c-5.211,3.002-8.826,7.883-10.18,13.744
	c-1.353,5.86-0.243,11.831,3.123,16.816c5.96,8.822,17.659,11.931,27.215,7.227l37.299-18.363
	c13.202-6.497,29.015-2.544,37.602,9.404c4.855,6.754,6.693,15.304,5.043,23.456c-1.651,8.152-6.669,15.314-13.768,19.647
	l-68.963,42.103c-4.254,2.597-7.189,6.707-8.263,11.574c-1.074,4.867-0.144,9.831,2.621,13.979
	c5.221,7.832,15.746,10.365,23.957,5.771l83.665-46.806c2.769-1.549,6.271-0.56,7.821,2.21c1.55,2.77,0.56,6.272-2.209,7.821
	l-83.665,46.806C206.644,474.63,201.697,475.838,196.796,475.838z"/>
<path style="fill:#F44E72;" d="M381.639,337.868L492.72,49.803c-4.807-9.076-11.612-16.957-19.823-23.04
	c-9.567-7.093-21.035-11.742-33.427-12.978c-1.167-0.129-2.34-0.209-3.52-0.267c-9.387-0.449-18.383,1.01-26.631,4.031l-0.007,0.003
	L298.199,305.693l0.003,0.007l0.033,0.013l43.527,23.364l39.836,8.781L381.639,337.868z"/>
<path style="fill:#E22952;" d="M323.188,315.336L439.47,13.784c-1.167-0.129-2.34-0.209-3.52-0.267
	c-9.387-0.449-18.383,1.01-26.631,4.031L298.204,305.701L323.188,315.336z"/>
<path style="fill:#F96D8C;" d="M381.639,337.868L492.72,49.803c-4.807-9.076-11.612-16.957-19.823-23.04L356.646,328.237
	l24.953,9.622L381.639,337.868z"/>
<polygon style="fill:#E8E8E8;" points="308.69,402.77 298.199,305.694 381.641,337.87 "/>
<polygon style="fill:#D6D6D6;" points="298.199,305.694 308.69,402.77 329.695,317.839 "/>
<path style="fill:#535B70;" d="M303.959,415.04L303.959,415.04c-3.953-1.525-5.922-5.965-4.398-9.918l7.492-19.429l14.316,5.52
	l-7.492,19.429C312.352,414.596,307.912,416.564,303.959,415.04z"/>
<g>
</g>
<g>
</g>
<g>
</g>
<g>
</g>
<g>
</g>
<g>
</g>
<g>
</g>
<g>
</g>
<g>
</g>
<g>
</g>
<g>
</g>
<g>
</g>
<g>
</g>
<g>
</g>
<g>
</g>
</svg>
